<?xml version="1.0" encoding="utf-8"?>
<!-- Generator: Adobe Illustrator 28.2.0, SVG Export Plug-In . SVG Version: 6.00 Build 0)  -->
<svg version="1.1" id="Capa_1" xmlns="http://www.w3.org/2000/svg" xmlns:xlink="http://www.w3.org/1999/xlink" x="0px" y="0px"
	 viewBox="0 0 900.61 283.34" style="enable-background:new 0 0 900.61 283.34;" xml:space="preserve">
<style type="text/css">
	.st0{fill:#FFFFFF;}
	.st1{fill:url(#SVGID_1_);}
</style>
<g>
	<g>
		<g>
			<path class="st0" d="M126.22,215.51h4.94l-9.46,47.33h-4.94L126.22,215.51z"/>
			<path class="st0" d="M170.57,238.57c0,1.28-0.14,2.64-0.41,4.06l-4.06,20.22h-4.8l4.06-20.28c0.2-1.15,0.34-2.23,0.34-3.25
				c0-5.07-3.04-7.98-9.2-7.98c-7.57,0-12.78,4.12-14.47,12.44l-3.79,19.07h-4.8l7.03-35.56h4.6l-1.15,5.68
				c3.45-4.06,8.32-5.95,13.93-5.95C165.9,227.01,170.57,231.33,170.57,238.57z"/>
			<path class="st0" d="M184.23,252.09c-0.14,0.81-0.27,1.56-0.27,2.23c0,3.04,1.69,4.73,5.14,4.73c1.96,0,3.85-0.61,5.48-1.83
				l1.15,3.65c-2.23,1.69-5.21,2.3-7.91,2.3c-5.34,0-8.65-3.04-8.65-8.11c0-0.88,0.07-1.83,0.27-2.77l4.12-20.96h-6.29l0.74-4.06
				h6.36l1.56-7.77h4.8l-1.55,7.77h10.82l-0.81,4.06h-10.82L184.23,252.09z"/>
			<path class="st0" d="M204.44,246.41c-0.07,0.47-0.07,0.95-0.07,1.42c0,7.1,4.06,11.09,12.24,11.09c4.73,0,8.99-1.69,11.63-4.46
				l2.16,3.45c-3.31,3.31-8.65,5.27-14.2,5.27c-10.28,0-16.56-5.81-16.56-15.15c0-12.1,8.32-21.03,19.67-21.03
				c9.4,0,15.48,5.61,15.48,15.08c0,1.49-0.2,2.98-0.47,4.33H204.44z M204.92,242.83h25.35c0.07-0.47,0.07-0.88,0.07-1.28
				c0-6.76-4.53-10.48-11.16-10.48C212.02,231.06,206.68,235.73,204.92,242.83z"/>
			<path class="st0" d="M263.13,227.01l-0.88,4.67c-0.47,0-0.81-0.07-1.35-0.07c-7.57,0-12.64,4.33-14.4,13.18l-3.58,18.05h-4.8
				l7.03-35.56h4.6l-1.22,6.49C251.71,229.1,256.37,227.01,263.13,227.01z"/>
			<path class="st0" d="M299.11,238.57c0,1.28-0.14,2.64-0.41,4.06l-4.06,20.22h-4.8l4.06-20.28c0.2-1.15,0.34-2.23,0.34-3.25
				c0-5.07-3.04-7.98-9.2-7.98c-7.57,0-12.78,4.12-14.47,12.44l-3.79,19.07h-4.8l7.03-35.56h4.6l-1.15,5.68
				c3.45-4.06,8.32-5.95,13.93-5.95C294.44,227.01,299.11,231.33,299.11,238.57z"/>
			<path class="st0" d="M309.65,246.41c-0.07,0.47-0.07,0.95-0.07,1.42c0,7.1,4.06,11.09,12.24,11.09c4.73,0,8.99-1.69,11.63-4.46
				l2.16,3.45c-3.31,3.31-8.65,5.27-14.2,5.27c-10.28,0-16.56-5.81-16.56-15.15c0-12.1,8.32-21.03,19.67-21.03
				c9.4,0,15.48,5.61,15.48,15.08c0,1.49-0.2,2.98-0.47,4.33H309.65z M310.13,242.83h25.35c0.07-0.47,0.07-0.88,0.07-1.28
				c0-6.76-4.53-10.48-11.16-10.48C317.23,231.06,311.88,235.73,310.13,242.83z"/>
			<path class="st0" d="M351.03,252.09c-0.14,0.81-0.27,1.56-0.27,2.23c0,3.04,1.69,4.73,5.14,4.73c1.96,0,3.85-0.61,5.48-1.83
				l1.15,3.65c-2.23,1.69-5.21,2.3-7.91,2.3c-5.34,0-8.65-3.04-8.65-8.11c0-0.88,0.07-1.83,0.27-2.77l4.12-20.96h-6.29l0.74-4.06
				h6.36l1.56-7.77h4.8l-1.55,7.77h10.82l-0.81,4.06h-10.82L351.03,252.09z"/>
			<path class="st0" d="M425.54,212.67l-10.01,50.17h-4.6l1.15-5.61c-3.38,3.72-8.11,5.95-13.86,5.95
				c-9.13,0-15.48-5.68-15.48-15.08c0-12.17,8.52-21.09,20.08-21.09c6.76,0,11.43,2.77,13.52,7.71l4.4-22.04H425.54z M414.66,242.29
				c0-6.96-4.26-11.09-11.7-11.09c-8.86,0-15.42,7.03-15.42,16.7c0,6.96,4.26,11.02,11.7,11.02
				C408.1,258.92,414.66,251.96,414.66,242.29z"/>
			<path class="st0" d="M430.68,246.41c-0.07,0.47-0.07,0.95-0.07,1.42c0,7.1,4.06,11.09,12.24,11.09c4.73,0,8.99-1.69,11.63-4.46
				l2.16,3.45c-3.31,3.31-8.65,5.27-14.2,5.27c-10.28,0-16.56-5.81-16.56-15.15c0-12.1,8.32-21.03,19.67-21.03
				c9.4,0,15.48,5.61,15.48,15.08c0,1.49-0.2,2.98-0.47,4.33H430.68z M431.16,242.83h25.35c0.07-0.47,0.07-0.88,0.07-1.28
				c0-6.76-4.53-10.48-11.16-10.48C438.26,231.06,432.91,235.73,431.16,242.83z"/>
			<path class="st0" d="M479.03,248.1c0-12.1,8.59-21.09,20.55-21.09c9.87,0,16.16,5.81,16.16,15.01c0,12.17-8.59,21.16-20.55,21.16
				C485.32,263.18,479.03,257.23,479.03,248.1z M510.94,242.29c0-6.96-4.26-11.09-11.7-11.09c-8.86,0-15.42,7.03-15.42,16.7
				c0,6.96,4.26,11.02,11.7,11.02C504.38,258.92,510.94,251.96,510.94,242.29z"/>
			<path class="st0" d="M526.76,252.09c-0.14,0.81-0.27,1.56-0.27,2.23c0,3.04,1.69,4.73,5.14,4.73c1.96,0,3.85-0.61,5.48-1.83
				l1.15,3.65c-2.23,1.69-5.21,2.3-7.91,2.3c-5.34,0-8.65-3.04-8.65-8.11c0-0.88,0.07-1.83,0.27-2.77l4.12-20.96h-6.29l0.74-4.06
				h6.36l1.56-7.77h4.8l-1.55,7.77h10.82l-0.81,4.06h-10.82L526.76,252.09z"/>
			<path class="st0" d="M568.82,227.01l-0.88,4.67c-0.47,0-0.81-0.07-1.35-0.07c-7.57,0-12.64,4.33-14.4,13.18l-3.58,18.05h-4.8
				l7.03-35.56h4.6l-1.22,6.49C557.39,229.1,562.06,227.01,568.82,227.01z"/>
			<path class="st0" d="M567,248.1c0-12.1,8.59-21.09,20.55-21.09c9.87,0,16.16,5.81,16.16,15.01c0,12.17-8.59,21.16-20.55,21.16
				C573.28,263.18,567,257.23,567,248.1z M598.91,242.29c0-6.96-4.26-11.09-11.7-11.09c-8.86,0-15.42,7.03-15.42,16.7
				c0,6.96,4.26,11.02,11.7,11.02C592.35,258.92,598.91,251.96,598.91,242.29z"/>
			<path class="st0" d="M659.15,238.57c0,1.28-0.14,2.64-0.41,4.06l-4.06,20.22h-4.8l4.06-20.28c0.2-1.15,0.34-2.23,0.34-3.25
				c0-5.07-3.04-7.98-9.2-7.98c-7.57,0-12.78,4.12-14.47,12.44l-3.79,19.07h-4.8l7.03-35.56h4.6l-1.15,5.68
				c3.45-4.06,8.32-5.95,13.93-5.95C654.49,227.01,659.15,231.33,659.15,238.57z"/>
			<path class="st0" d="M672.14,227.28h4.8l-7.03,35.56h-4.8L672.14,227.28z M673.35,216.32c0-2.03,1.55-3.65,3.72-3.65
				c1.89,0,3.31,1.42,3.31,3.04c0,2.16-1.62,3.79-3.79,3.79C674.71,219.5,673.35,218.01,673.35,216.32z"/>
			<path class="st0" d="M717.57,227.28l-22.85,35.56h-4.94l-8.79-35.56h4.8l7.37,30.36l19.4-30.36H717.57z"/>
			<path class="st0" d="M717.98,246.41c-0.07,0.47-0.07,0.95-0.07,1.42c0,7.1,4.06,11.09,12.24,11.09c4.73,0,8.99-1.69,11.63-4.46
				l2.16,3.45c-3.31,3.31-8.65,5.27-14.2,5.27c-10.28,0-16.56-5.81-16.56-15.15c0-12.1,8.32-21.03,19.67-21.03
				c9.4,0,15.48,5.61,15.48,15.08c0,1.49-0.2,2.98-0.47,4.33H717.98z M718.45,242.83h25.35c0.07-0.47,0.07-0.88,0.07-1.28
				c0-6.76-4.53-10.48-11.16-10.48C725.55,231.06,720.21,235.73,718.45,242.83z"/>
			<path class="st0" d="M761.66,212.67h4.8l-10.01,50.17h-4.8L761.66,212.67z"/>
		</g>
	</g>
</g>
<g>
	<g>
		<path class="st0" d="M133.03,27.96l-1.02,15.23c-0.15,1.91-1.73,3.39-3.64,3.39h-52.2c-7.36,0-9.85,2.44-9.85,9.68v28.6h51.31
			c3.72,0,6.75,3,6.75,6.72v8.12c0,3.72-3.03,6.75-6.75,6.75H66.31v57.55c0,3.72-3,6.72-6.72,6.72H48.03c-3.69,0-6.72-3-6.72-6.72
			V52.81c0-17.47,11.97-28.77,30.51-28.77h57.73C131.65,24.22,133.15,25.95,133.03,27.96z"/>
		<path class="st0" d="M166.21,35.57v5.28c0,5.68-4.12,10.8-9.77,11.33c-6.39,0.6-11.8-4.45-11.8-10.75v-5.31
			c0-5.67,4.14-10.78,9.8-11.28C160.83,24.28,166.21,29.32,166.21,35.57z"/>
		<path class="st0" d="M165.42,71.2v92.79c0,3.72-3.03,6.72-6.75,6.72h-6.49c-3.72,0-6.75-3-6.75-6.72V71.2
			c0-3.72,3.03-6.72,6.75-6.72h6.49C162.39,64.48,165.42,67.48,165.42,71.2z"/>
		<path class="st0" d="M270.76,76.6c-6.29-8.96-16.12-13.32-30-13.32c-11.26,0-22.64,4.58-33.84,13.6c0.2-3.62,0.2-7.36,0.2-11.76
			V30.79c0-3.72-3-6.75-6.72-6.75h-6.52c-3.72,0-6.72,3.03-6.72,6.75v134.73l2.55,0.79c13.62,4.28,30.3,6.82,44.61,6.82
			c31.93,0,45.56-16.45,45.56-55.03C279.88,98.6,276.98,85.41,270.76,76.6z M231.78,154.8c-8.45,0-16.53-0.99-24.65-3V96.51
			c11.23-8.61,20.04-14.67,30.02-14.67c8.76,0,14.06,2.24,17.21,7.23c3.41,5.4,4.94,14.34,4.94,29.03
			c0,27.43-6.37,36.67-25.26,36.67C233.28,154.8,232.54,154.8,231.78,154.8z"/>
		<path class="st0" d="M381,152.35l-0.46,0.03c-5.53,0.74-19.81,2.39-33.18,2.39c-20.75,0-27.96-6.26-29.77-26.58h44.66
			c7.94,0,14.18-2.24,18.54-6.65c5.17-5.22,7.61-13.14,7.49-24.22c-0.25-22.59-15.18-34.05-44.36-34.05
			c-17.21,0-28.72,3.95-36.24,12.45c-7.59,8.61-11.13,22-11.13,42.17c0,20.09,3.59,33.51,11.33,42.27
			c7.82,8.84,19.79,12.96,37.64,12.96c12.2,0,29.74-1.78,38.2-5.09l2.75-1.07l-1.88-11.56C384.31,153.65,382.81,152.35,381,152.35z
			 M323.53,88.26c3.92-4.58,10.41-6.62,21.01-6.62c19.35,0,23.43,6.39,23.55,15.99c0.13,5.47-0.79,9.24-2.7,11.18
			c-1.32,1.38-3.34,2.04-6.16,2.04h-41.97C317.82,99.64,319.78,92.64,323.53,88.26z"/>
		<path class="st0" d="M470.6,69.1l-1.21,9.1c-0.34,2.56-2.52,4.46-5.1,4.46h-3.52c-10.44,0-19.91,4.3-35.65,13.37v67.96
			c0,3.72-3.03,6.72-6.72,6.72h-6.72c-3.71,0-6.72-3.01-6.72-6.72V72.63c0-3.69,3-6.72,6.72-6.72h3.91c3.5,0,6.42,2.67,6.73,6.16
			l0.61,6.9c14.51-10.54,27.65-15.69,40.06-15.69h2.51C468.61,63.28,471.01,66.02,470.6,69.1z"/>
	</g>
	<path class="st0" d="M583.95,40.47c-9.71-9.98-23.34-15.25-39.46-15.25h-48.28c-3.79,0-6.86,3.07-6.86,6.86V162.1
		c0,3.79,3.07,6.86,6.86,6.86h7.87c3.79,0,6.86-3.07,6.86-6.86v-33.88h33.55c16.12,0,29.75-5.27,39.46-15.25
		c9.01-9.29,13.95-22.14,13.95-36.27C597.9,62.6,592.96,49.73,583.95,40.47z M541.44,107.13h-30.5V46.51h30.5
		c21.82,0,34.32,11.01,34.32,30.2C575.76,96.05,563.26,107.13,541.44,107.13z"/>
	<path class="st0" d="M697.29,116.69c-0.15-0.2-0.12-0.4-0.1-0.5c0.02-0.1,0.1-0.27,0.32-0.37c15.85-7.96,25.31-23.89,25.31-42.61
		c0-13.08-4.64-25.04-13.05-33.7c-9.09-9.36-21.87-14.3-36.94-14.3h-51.72c-3.79,0-6.86,3.07-6.86,6.86V162.1
		c0,3.79,3.07,6.86,6.86,6.86h7.87c3.79,0,6.86-3.07,6.86-6.86v-40.89h38.39l30.46,44.75c1.28,1.88,3.4,3,5.67,3h9.58
		c5.51,0,8.77-6.17,5.67-10.72L697.29,116.69z M670.36,99.92h-34.52V46.51h34.52c18.97,0,30.3,9.98,30.3,26.71
		C700.66,89.94,689.33,99.92,670.36,99.92z"/>
	<linearGradient id="SVGID_1_" gradientUnits="userSpaceOnUse" x1="790.8715" y1="169.4715" x2="829.3575" y2="25.8397">
		<stop  offset="0" style="stop-color:#E64E1B"/>
		<stop  offset="0.4184" style="stop-color:#E98E2D"/>
		<stop  offset="0.8104" style="stop-color:#ECC43C"/>
		<stop  offset="1" style="stop-color:#EDD942"/>
	</linearGradient>
	<path class="st1" d="M882.75,100.79c-0.47,9.04-2.62,17.9-6.36,26.33c-3.67,8.26-9.01,16-15.48,22.39
		c-12.98,12.93-30.9,20.84-49.15,21.72c-1.3,0.07-2.6,0.1-3.87,0.1c-7.84,0-15.7-1.22-23.39-3.64c-7.56-2.42-14.68-5.97-21.17-10.58
		c-5.17-1.65-8.69-6.49-8.69-12.01c0-6.99,5.64-12.65,12.58-12.65c5.87,0,10.91,4.02,12.23,9.73c3.64,2.45,7.56,4.42,11.63,5.89
		c6.29,2.25,12.8,3.39,19.32,3.39l0.7-0.02c13.65-0.12,27.31-5.57,37.47-14.93c10.21-9.26,16.82-22.71,18.15-36.89
		c0.65-7.09-0.02-14.2-1.97-21.09c-1.95-6.94-5.12-13.38-9.41-19.19c-8.56-11.61-21.57-19.94-35.67-22.89
		c-4.19-0.9-8.44-1.35-12.65-1.35c-3.02,0-6.07,0.25-9.06,0.7c-7.29,1.15-14.23,3.57-20.67,7.24c-6.49,3.69-12.18,8.49-16.9,14.23
		c-4.72,5.72-8.31,12.31-10.71,19.59c-2.4,7.21-3.42,14.73-3.02,22.34c0.1,2.47,0.37,4.97,0.8,7.41c0.85,4.99,2.32,9.93,4.42,14.68
		c0.6,1.75-0.02,3.52-1.45,4.34c-0.52,0.32-1.12,0.5-1.75,0.5c-1.25,0-2.45-0.67-3.1-1.75c-3.82-7.89-6.09-16.12-6.81-24.66
		c-0.75-8.59,0.07-17.15,2.5-25.46c2.42-8.46,6.29-16.22,11.48-23.04c5.27-6.91,11.68-12.75,19.12-17.35
		c7.41-4.62,15.53-7.81,24.11-9.48c4.44-0.85,8.99-1.3,13.53-1.3c4.14,0,8.36,0.37,12.51,1.1c17.3,2.92,33.55,12.55,44.6,26.38
		c5.62,7.04,9.86,14.95,12.63,23.51C882.07,82.72,883.25,91.71,882.75,100.79z"/>
</g>
</svg>
