<?xml version="1.0" encoding="utf-8"?>
<!-- Generator: Adobe Illustrator 28.2.0, SVG Export Plug-In . SVG Version: 6.00 Build 0)  -->
<svg version="1.1" id="Capa_1" xmlns="http://www.w3.org/2000/svg" xmlns:xlink="http://www.w3.org/1999/xlink" x="0px" y="0px"
	 viewBox="0 0 1000 914.12" style="enable-background:new 0 0 1000 914.12;" xml:space="preserve">
<style type="text/css">
	.st0{fill:#FFFFFF;}
	.st1{font-family:'Montserrat-Italic';}
	.st2{font-size:67.6166px;}
	.st3{letter-spacing:-2;}
	.st4{fill:url(#SVGID_1_);}
</style>
<g>
	<g>
		<text transform="matrix(1 0 0 1 160.4632 592.3188)" class="st0 st1 st2 st3">Internet de otro nivel</text>
	</g>
</g>
<g>
	<g>
		<path class="st0" d="M182.72,357.44l-1.02,15.23c-0.15,1.91-1.73,3.39-3.64,3.39h-52.2c-7.36,0-9.85,2.44-9.85,9.68v28.6h51.31
			c3.72,0,6.75,3,6.75,6.72v8.12c0,3.72-3.03,6.75-6.75,6.75h-51.31v57.55c0,3.72-3,6.72-6.72,6.72H97.72c-3.69,0-6.72-3-6.72-6.72
			V382.29c0-17.47,11.97-28.77,30.51-28.77h57.73C181.35,353.7,182.85,355.43,182.72,357.44z"/>
		<path class="st0" d="M215.9,365.05v5.28c0,5.68-4.12,10.8-9.77,11.33c-6.39,0.6-11.8-4.45-11.8-10.75v-5.31
			c0-5.67,4.14-10.78,9.8-11.28C210.53,353.76,215.9,358.8,215.9,365.05z"/>
		<path class="st0" d="M215.11,400.68v92.79c0,3.72-3.03,6.72-6.75,6.72h-6.49c-3.72,0-6.75-3-6.75-6.72v-92.79
			c0-3.72,3.03-6.72,6.75-6.72h6.49C212.08,393.95,215.11,396.96,215.11,400.68z"/>
		<path class="st0" d="M320.46,406.08c-6.29-8.96-16.12-13.32-30-13.32c-11.26,0-22.64,4.58-33.84,13.6c0.2-3.62,0.2-7.36,0.2-11.76
			v-34.33c0-3.72-3-6.75-6.72-6.75h-6.52c-3.72,0-6.72,3.03-6.72,6.75V495l2.55,0.79c13.62,4.28,30.3,6.82,44.61,6.82
			c31.93,0,45.56-16.45,45.56-55.03C329.58,428.08,326.67,414.89,320.46,406.08z M281.47,484.28c-8.45,0-16.53-0.99-24.65-3v-55.28
			c11.23-8.61,20.04-14.67,30.02-14.67c8.76,0,14.06,2.24,17.21,7.23c3.41,5.4,4.94,14.34,4.94,29.03
			c0,27.43-6.37,36.67-25.26,36.67C282.98,484.28,282.24,484.28,281.47,484.28z"/>
		<path class="st0" d="M430.7,481.83l-0.46,0.03c-5.53,0.74-19.81,2.39-33.18,2.39c-20.75,0-27.96-6.26-29.77-26.58h44.66
			c7.94,0,14.18-2.24,18.54-6.65c5.17-5.22,7.61-13.14,7.49-24.22c-0.25-22.59-15.18-34.05-44.36-34.05
			c-17.21,0-28.72,3.95-36.24,12.45c-7.59,8.61-11.13,22-11.13,42.17c0,20.09,3.59,33.51,11.33,42.27
			c7.82,8.84,19.79,12.96,37.64,12.96c12.2,0,29.74-1.78,38.2-5.09l2.75-1.07l-1.88-11.56C434.01,483.13,432.5,481.83,430.7,481.83z
			 M373.22,417.74c3.92-4.58,10.41-6.62,21.01-6.62c19.35,0,23.43,6.39,23.55,15.99c0.13,5.47-0.79,9.24-2.7,11.18
			c-1.32,1.38-3.34,2.04-6.16,2.04h-41.97C367.52,429.12,369.48,422.12,373.22,417.74z"/>
		<path class="st0" d="M520.3,398.58l-1.21,9.1c-0.34,2.56-2.52,4.46-5.1,4.46h-3.52c-10.44,0-19.91,4.3-35.65,13.37v67.96
			c0,3.72-3.03,6.72-6.72,6.72h-6.72c-3.71,0-6.72-3.01-6.72-6.72V402.1c0-3.69,3-6.72,6.72-6.72h3.91c3.5,0,6.42,2.67,6.73,6.16
			l0.61,6.9c14.51-10.54,27.65-15.69,40.06-15.69h2.51C518.31,392.76,520.71,395.49,520.3,398.58z"/>
	</g>
	<path class="st0" d="M633.65,369.94c-9.71-9.98-23.34-15.25-39.46-15.25h-48.28c-3.79,0-6.86,3.07-6.86,6.86v130.03
		c0,3.79,3.07,6.86,6.86,6.86h7.87c3.79,0,6.86-3.07,6.86-6.86V457.7h33.55c16.12,0,29.75-5.27,39.46-15.25
		c9.01-9.29,13.95-22.14,13.95-36.27C647.6,392.08,642.66,379.2,633.65,369.94z M591.14,436.61h-30.5v-60.63h30.5
		c21.82,0,34.32,11.01,34.32,30.2C625.46,425.53,612.95,436.61,591.14,436.61z"/>
	<path class="st0" d="M746.99,446.17c-0.15-0.2-0.12-0.4-0.1-0.5c0.02-0.1,0.1-0.27,0.32-0.37c15.85-7.96,25.31-23.89,25.31-42.61
		c0-13.08-4.64-25.04-13.05-33.7c-9.09-9.36-21.87-14.3-36.94-14.3h-51.72c-3.79,0-6.86,3.07-6.86,6.86v130.03
		c0,3.79,3.07,6.86,6.86,6.86h7.87c3.79,0,6.86-3.07,6.86-6.86v-40.89h38.39l30.46,44.75c1.28,1.88,3.4,3,5.67,3h9.58
		c5.51,0,8.77-6.17,5.67-10.72L746.99,446.17z M720.06,429.4h-34.52v-53.41h34.52c18.97,0,30.3,9.98,30.3,26.71
		C750.36,419.41,739.03,429.4,720.06,429.4z"/>
	<linearGradient id="SVGID_1_" gradientUnits="userSpaceOnUse" x1="840.5675" y1="498.9497" x2="879.0535" y2="355.3179">
		<stop  offset="0" style="stop-color:#E64E1B"/>
		<stop  offset="0.4184" style="stop-color:#E98E2D"/>
		<stop  offset="0.8104" style="stop-color:#ECC43C"/>
		<stop  offset="1" style="stop-color:#EDD942"/>
	</linearGradient>
	<path class="st4" d="M932.44,430.27c-0.47,9.04-2.62,17.9-6.36,26.33c-3.67,8.26-9.01,16-15.48,22.39
		c-12.98,12.93-30.9,20.84-49.15,21.72c-1.3,0.07-2.6,0.1-3.87,0.1c-7.84,0-15.7-1.22-23.39-3.64c-7.56-2.42-14.68-5.97-21.17-10.58
		c-5.17-1.65-8.69-6.49-8.69-12.01c0-6.99,5.64-12.65,12.58-12.65c5.87,0,10.91,4.02,12.23,9.73c3.64,2.45,7.56,4.42,11.63,5.89
		c6.29,2.25,12.8,3.39,19.32,3.39l0.7-0.02c13.65-0.12,27.31-5.57,37.47-14.93c10.21-9.26,16.82-22.71,18.15-36.89
		c0.65-7.09-0.03-14.2-1.97-21.09c-1.95-6.94-5.12-13.38-9.41-19.19c-8.56-11.61-21.57-19.94-35.67-22.89
		c-4.19-0.9-8.44-1.35-12.65-1.35c-3.02,0-6.07,0.25-9.06,0.7c-7.29,1.15-14.23,3.57-20.67,7.24c-6.49,3.69-12.18,8.49-16.9,14.23
		c-4.72,5.72-8.31,12.31-10.71,19.59c-2.4,7.21-3.42,14.73-3.02,22.34c0.1,2.47,0.37,4.97,0.8,7.41c0.85,4.99,2.32,9.93,4.42,14.68
		c0.6,1.75-0.03,3.52-1.45,4.34c-0.52,0.32-1.12,0.5-1.75,0.5c-1.25,0-2.45-0.67-3.1-1.75c-3.82-7.89-6.09-16.12-6.81-24.66
		c-0.75-8.59,0.07-17.15,2.5-25.46c2.42-8.46,6.29-16.22,11.48-23.04c5.27-6.91,11.68-12.75,19.12-17.35
		c7.41-4.62,15.53-7.81,24.11-9.48c4.44-0.85,8.99-1.3,13.53-1.3c4.14,0,8.36,0.37,12.51,1.1c17.3,2.92,33.55,12.55,44.6,26.38
		c5.62,7.04,9.86,14.95,12.63,23.51C931.77,412.2,932.94,421.19,932.44,430.27z"/>
</g>
</svg>
