<?xml version="1.0" encoding="utf-8"?>
<!-- Generator: Adobe Illustrator 28.2.0, SVG Export Plug-In . SVG Version: 6.00 Build 0)  -->
<svg version="1.1" id="Modo_de_aislamiento" xmlns="http://www.w3.org/2000/svg" xmlns:xlink="http://www.w3.org/1999/xlink"
	 x="0px" y="0px" viewBox="0 0 1200 1200" style="enable-background:new 0 0 1200 1200;" xml:space="preserve">
<style type="text/css">
	.st0{fill:url(#SVGID_1_);}
	.st1{fill:url(#SVGID_00000048479077809633836350000005930427318675813002_);}
	.st2{fill:url(#SVGID_00000013155293445546496790000009249799716227792828_);}
	.st3{fill:url(#SVGID_00000044178958123048076010000016593375896394941115_);}
	.st4{fill:url(#SVGID_00000003823193022950723150000005304217672836382887_);}
	.st5{fill:#002CCC;}
	.st6{fill:url(#SVGID_00000142883959832658381180000001244923889257448077_);}
	.st7{fill:url(#SVGID_00000025416424110496323970000008960685490736825273_);}
	.st8{fill:url(#SVGID_00000144314922136226861320000005930339221115538061_);}
</style>
<g>
	<linearGradient id="SVGID_1_" gradientUnits="userSpaceOnUse" x1="709.4067" y1="907.5638" x2="415.6395" y2="929.5236">
		<stop  offset="0" style="stop-color:#00006A"/>
		<stop  offset="1" style="stop-color:#002CCC"/>
	</linearGradient>
	<polygon class="st0" points="408.85,915.25 444.1,835.47 474.88,815.41 527.07,794.99 688.15,1014.71 686.29,1014.71 
		687.01,1015.09 635.96,1039.26 603.05,1019.64 604.06,1014.71 485.64,1014.71 427,923.24 408.85,948.47 393.56,922.19 	"/>
	
		<linearGradient id="SVGID_00000065792044156327766520000008325639384631605931_" gradientUnits="userSpaceOnUse" x1="636.0269" y1="723.7765" x2="84.3079" y2="831.2556">
		<stop  offset="0" style="stop-color:#00006A"/>
		<stop  offset="1" style="stop-color:#002CCC"/>
	</linearGradient>
	<polygon style="fill:url(#SVGID_00000065792044156327766520000008325639384631605931_);" points="424.49,849.05 568.92,619.27 
		632.05,611.56 682.75,588.97 684.22,586.99 498.72,586.32 446.74,611.56 442.02,643.02 466.36,633.06 434.8,677.7 424,661.62 
		372.45,742.25 321.65,611.55 373.84,586.99 174.28,586.32 122.26,611.56 174.28,627.16 198.54,620.11 331.61,802.79 
		169.72,1014.71 309.96,1014.71 341.9,962.65 393.56,896.57 	"/>
	
		<linearGradient id="SVGID_00000176017573297336294430000006794020098496028842_" gradientUnits="userSpaceOnUse" x1="416.6493" y1="662.8664" x2="314.6899" y2="671.8206">
		<stop  offset="0" style="stop-color:#00006A"/>
		<stop  offset="1" style="stop-color:#002CCC"/>
	</linearGradient>
	<polygon style="fill:url(#SVGID_00000176017573297336294430000006794020098496028842_);" points="424,665.76 372.45,746.38 
		321.65,611.55 373.84,586.99 	"/>
	
		<linearGradient id="SVGID_00000060748910121842443720000001980204747165193647_" gradientUnits="userSpaceOnUse" x1="676.2805" y1="695.18" x2="441.68" y2="712.0524">
		<stop  offset="0" style="stop-color:#00006A"/>
		<stop  offset="1" style="stop-color:#002CCC"/>
	</linearGradient>
	<polygon style="fill:url(#SVGID_00000060748910121842443720000001980204747165193647_);" points="682.75,588.97 527.07,794.99 
		474.88,815.41 447.54,817.35 568.92,619.27 632.05,611.56 	"/>
	
		<linearGradient id="SVGID_00000097487738579047825530000006920839288112105617_" gradientUnits="userSpaceOnUse" x1="408.2808" y1="983.1517" x2="301.7116" y2="982.8642">
		<stop  offset="0" style="stop-color:#00006A"/>
		<stop  offset="1" style="stop-color:#002CCC"/>
	</linearGradient>
	<polygon style="fill:url(#SVGID_00000097487738579047825530000006920839288112105617_);" points="408.85,952.61 361.31,1018.84 
		360.34,1019.22 308.15,1039.64 302.28,1031.37 309.96,1018.84 341.9,966.78 382.36,926.32 	"/>
	<path class="st5" d="M433.45,1039.26l-58.64-91.48l-65.68,91.48H117.57l161.85-211.89l-157.16-215.8h199.38l60.99,90.7l64.12-90.7
		h185.31L474.89,819.55l161.07,219.71H433.45z"/>
	<polygon class="st5" points="437.17,1032.46 375.13,935.67 305.64,1032.46 131.33,1032.46 287.91,827.47 135.63,618.37 
		318.01,618.37 382.49,714.25 450.27,618.37 618.38,618.37 466.41,819.49 622.53,1032.46 	"/>
</g>
<g>
	
		<linearGradient id="SVGID_00000142887301914287825690000006880233973606592185_" gradientUnits="userSpaceOnUse" x1="1234.4506" y1="655.0583" x2="786.7346" y2="759.5099">
		<stop  offset="0" style="stop-color:#002CCC"/>
		<stop  offset="1" style="stop-color:#00006A"/>
	</linearGradient>
	<path style="fill:url(#SVGID_00000142887301914287825690000006880233973606592185_);" d="M1060.51,605.3l52.19-20.42
		l-101.63,103.24l-52.19,20.42l-25.69,24.09l57.8,84.76l5.78,167.83l-34.13,40.42c-21.39,3.76-44.85,5.74-70.46,5.74
		c-75.01,0-157.16-16.45-215.8-49.28l35.23-76.57l-1.9,0.25l-22.7-38.56l51.94-21.18c46.91,27.38,100.87,39.87,146.99,39.87
		c41.43,0,71.17-14.05,71.17-42.19c0-23.46-18.02-37.55-64.93-37.55h-72.69V692.8l80.54-82.1H704.56v-99.02l-6.2,1.65l-45.99-21.39
		l52.19-20.42l0,0h408.14l-52.19,20.42L1031.7,608.8L1060.51,605.3z"/>
	
		<linearGradient id="SVGID_00000036934601870391191370000006845861655221092022_" gradientUnits="userSpaceOnUse" x1="1203.8945" y1="834.4786" x2="995.595" y2="853.9909">
		<stop  offset="0" style="stop-color:#002CCC"/>
		<stop  offset="1" style="stop-color:#00006A"/>
	</linearGradient>
	<path style="fill:url(#SVGID_00000036934601870391191370000006845861655221092022_);" d="M1142.4,839.58
		c0,80.12-54.72,160.24-179.77,181.92l34.13-40.42l-5.78-167.83l-57.8-84.76l25.69-19.96l52.19-20.42
		C1097.05,709.21,1142.4,763.72,1142.4,839.58z"/>
	
		<linearGradient id="SVGID_00000143594359138272601210000013054259129144009095_" gradientUnits="userSpaceOnUse" x1="1137.9082" y1="532.1138" x2="1057.9248" y2="541.9304">
		<stop  offset="0" style="stop-color:#002CCC"/>
		<stop  offset="1" style="stop-color:#00006A"/>
	</linearGradient>
	<polygon style="fill:url(#SVGID_00000143594359138272601210000013054259129144009095_);" points="1112.7,471.52 1112.7,584.88 
		1060.51,605.3 1031.7,604.67 1060.51,491.94 	"/>
	<path class="st5" d="M1090.23,864.12c0,93.83-75.06,187.66-250.21,187.66c-75.06,0-157.16-16.42-215.8-49.26l62.79-135.3
		c46.92,27.37,100.62,39.13,146.76,39.13c41.44,0,71.15-14.08,71.15-42.22c0-23.46-17.98-37.53-64.9-37.53h-72.72V713.21l80.54-82.1
		H652.37V491.93h408.15v113.38L958.87,708.52C1044.88,729.63,1090.23,788.27,1090.23,864.12z"/>
	<path class="st5" d="M840.02,1044.97c-76.3,0-153.06-16.9-206.96-45.39l56.8-123.55c43.23,23.65,95.24,37.12,143.91,37.12
		c48.81,0,77.96-18.33,77.96-49.03c0-29.42-24.12-44.34-71.7-44.34h-65.91V715.99l89.94-91.68H659.17V498.74h394.54v103.78
		L945.62,712.28l11.63,2.85c80.19,19.68,126.17,73.99,126.17,148.99c0,48.03-20.27,92.02-57.07,123.87
		C983.27,1025.26,918.84,1044.97,840.02,1044.97z"/>
</g>
</svg>
