<?xml version="1.0" encoding="utf-8"?>
<!-- Generator: Adobe Illustrator 28.2.0, SVG Export Plug-In . SVG Version: 6.00 Build 0)  -->
<svg version="1.1" id="Modo_de_aislamiento" xmlns="http://www.w3.org/2000/svg" xmlns:xlink="http://www.w3.org/1999/xlink"
	 x="0px" y="0px" viewBox="0 0 1200 1200" style="enable-background:new 0 0 1200 1200;" xml:space="preserve">
<style type="text/css">
	.st0{fill:url(#SVGID_1_);}
	.st1{fill:url(#SVGID_00000061469387307947870550000004962981499461305272_);}
	.st2{fill:url(#SVGID_00000139264357129782402660000014854360751045818290_);}
	.st3{fill:url(#SVGID_00000058550522451990452190000011774272921051860117_);}
	.st4{fill:url(#SVGID_00000011028593955125157610000014830136969518385083_);}
	.st5{fill:url(#SVGID_00000025429154100288232730000006703300827978464422_);}
	.st6{fill:#FFFFFF;}
	.st7{fill:url(#SVGID_00000047758557852470455500000011164542364654748040_);}
	.st8{fill:url(#SVGID_00000058585010165457326180000011430493120306076843_);}
	.st9{fill:url(#SVGID_00000038404174434041258690000010128287350588941494_);}
	.st10{fill:url(#SVGID_00000101093217554880313820000014178753252244226212_);}
</style>
<g>
	<linearGradient id="SVGID_1_" gradientUnits="userSpaceOnUse" x1="709.264" y1="909.7891" x2="415.4967" y2="931.7488">
		<stop  offset="0" style="stop-color:#8C8C8C"/>
		<stop  offset="1" style="stop-color:#FFFFFF"/>
	</linearGradient>
	<polygon class="st0" points="408.85,919.38 444.1,839.6 474.88,819.54 527.07,799.12 688.15,1018.84 686.29,1018.84 
		687.01,1019.22 634.82,1039.64 603.05,1023.78 604.06,1018.84 485.64,1018.84 427,927.38 408.85,952.61 393.56,926.32 	"/>
	
		<linearGradient id="SVGID_00000154383612898596988580000003444456118211868803_" gradientUnits="userSpaceOnUse" x1="636.0269" y1="727.911" x2="84.3079" y2="835.3901">
		<stop  offset="0" style="stop-color:#8C8C8C"/>
		<stop  offset="1" style="stop-color:#FFFFFF"/>
	</linearGradient>
	<polygon style="fill:url(#SVGID_00000154383612898596988580000003444456118211868803_);" points="424.49,853.18 568.92,623.4 
		632.04,611.55 682.75,593.11 684.22,591.13 499.73,591.13 498.72,590.45 446.53,610.87 442.02,647.15 466.36,637.2 434.8,681.83 
		424,665.76 372.45,746.38 321.65,611.55 373.84,591.13 175.34,591.13 174.28,590.45 122.13,610.87 174.28,631.29 198.54,624.24 
		331.61,806.92 169.72,1018.84 309.96,1018.84 341.9,966.78 393.56,900.7 	"/>
	
		<linearGradient id="SVGID_00000123418785369420149880000016120753595011799476_" gradientUnits="userSpaceOnUse" x1="416.8294" y1="664.9178" x2="314.8701" y2="673.8721">
		<stop  offset="0" style="stop-color:#8C8C8C"/>
		<stop  offset="1" style="stop-color:#FFFFFF"/>
	</linearGradient>
	<polygon style="fill:url(#SVGID_00000123418785369420149880000016120753595011799476_);" points="424,665.76 372.45,746.38 
		321.65,611.55 373.84,591.13 	"/>
	
		<linearGradient id="SVGID_00000065051071087905967700000010715300045984522392_" gradientUnits="userSpaceOnUse" x1="676.2805" y1="699.3145" x2="441.68" y2="716.1869">
		<stop  offset="0" style="stop-color:#8C8C8C"/>
		<stop  offset="1" style="stop-color:#FFFFFF"/>
	</linearGradient>
	<polygon style="fill:url(#SVGID_00000065051071087905967700000010715300045984522392_);" points="682.75,593.11 527.07,799.12 
		474.88,819.54 447.54,821.48 568.92,623.4 632.04,611.55 	"/>
	
		<linearGradient id="SVGID_00000102546894925673237840000018329903436698848431_" gradientUnits="userSpaceOnUse" x1="408.2808" y1="983.1517" x2="301.7116" y2="982.8642">
		<stop  offset="0" style="stop-color:#8C8C8C"/>
		<stop  offset="1" style="stop-color:#FFFFFF"/>
	</linearGradient>
	<polygon style="fill:url(#SVGID_00000102546894925673237840000018329903436698848431_);" points="408.85,952.61 361.31,1018.84 
		360.34,1019.22 308.15,1039.64 302.28,1031.37 309.96,1018.84 341.9,966.78 382.36,926.32 	"/>
	
		<linearGradient id="SVGID_00000156564547870803071190000010382529079909489057_" gradientUnits="userSpaceOnUse" x1="117.5652" y1="825.4134" x2="635.9622" y2="825.4134">
		<stop  offset="0" style="stop-color:#FFFFFF"/>
		<stop  offset="0.3048" style="stop-color:#FAFAFA"/>
		<stop  offset="0.684" style="stop-color:#EAEBEB"/>
		<stop  offset="1" style="stop-color:#D8D9DA"/>
	</linearGradient>
	<path style="fill:url(#SVGID_00000156564547870803071190000010382529079909489057_);" d="M433.45,1039.26l-58.64-91.48
		l-65.68,91.48H117.57l161.85-211.89l-157.16-215.8h199.38l60.99,90.7l64.12-90.7h185.31L474.89,819.55l161.07,219.71H433.45z"/>
	<polygon class="st6" points="437.17,1032.46 375.13,935.67 305.64,1032.46 131.33,1032.46 287.91,827.47 135.63,618.37 
		318.01,618.37 382.49,714.25 450.27,618.37 618.38,618.37 466.41,819.49 622.53,1032.46 	"/>
</g>
<g>
	
		<linearGradient id="SVGID_00000011735369169026222680000016952339021887541686_" gradientUnits="userSpaceOnUse" x1="1234.4506" y1="655.0583" x2="786.7346" y2="759.5099">
		<stop  offset="0" style="stop-color:#8C8C8C"/>
		<stop  offset="1" style="stop-color:#FFFFFF"/>
	</linearGradient>
	<path style="fill:url(#SVGID_00000011735369169026222680000016952339021887541686_);" d="M1060.51,605.3l52.19-20.42
		l-101.63,103.24l-52.19,20.42l-25.69,24.09l57.8,84.76l5.78,167.83l-34.13,40.42c-21.39,3.76-44.85,5.74-70.46,5.74
		c-75.01,0-157.16-16.45-215.8-49.28l35.23-76.57l-1.9,0.25l-22.7-38.56l51.47-20.12l0.46-1.05
		c46.91,27.38,100.87,39.87,146.99,39.87c41.43,0,71.17-14.05,71.17-42.19c0-23.46-18.02-37.55-64.93-37.55h-72.69V692.8l80.54-82.1
		H704.56v-99.02l-6.2,1.65l-45.4-20.42l51.6-20.17v-1.22h408.14l-52.19,20.42L1031.7,608.8L1060.51,605.3z"/>
	
		<linearGradient id="SVGID_00000000215019425455239860000017882515772523565441_" gradientUnits="userSpaceOnUse" x1="1203.7107" y1="836.563" x2="995.4046" y2="856.076">
		<stop  offset="0" style="stop-color:#8C8C8C"/>
		<stop  offset="1" style="stop-color:#FFFFFF"/>
	</linearGradient>
	<path style="fill:url(#SVGID_00000000215019425455239860000017882515772523565441_);" d="M1142.4,843.71
		c0,80.12-54.72,160.24-179.77,181.92l34.13-40.42l-5.78-167.83l-57.8-84.76l25.69-24.09l52.19-20.42
		C1097.05,709.21,1142.4,767.86,1142.4,843.71z"/>
	
		<linearGradient id="SVGID_00000102544582514065478770000015586535665516820909_" gradientUnits="userSpaceOnUse" x1="1137.9994" y1="532.1026" x2="1057.5991" y2="541.9703">
		<stop  offset="0" style="stop-color:#8C8C8C"/>
		<stop  offset="1" style="stop-color:#FFFFFF"/>
	</linearGradient>
	<polygon style="fill:url(#SVGID_00000102544582514065478770000015586535665516820909_);" points="1112.7,471.52 1112.7,584.88 
		1060.51,605.3 1031.7,608.8 1060.51,491.94 	"/>
	
		<linearGradient id="SVGID_00000023989193632426506180000012846040998748133274_" gradientUnits="userSpaceOnUse" x1="624.2178" y1="771.8538" x2="1090.2294" y2="771.8538">
		<stop  offset="0" style="stop-color:#FFFFFF"/>
		<stop  offset="0.3048" style="stop-color:#FAFAFA"/>
		<stop  offset="0.684" style="stop-color:#EAEBEB"/>
		<stop  offset="1" style="stop-color:#D8D9DA"/>
	</linearGradient>
	<path style="fill:url(#SVGID_00000023989193632426506180000012846040998748133274_);" d="M1090.23,864.12
		c0,93.83-75.06,187.66-250.21,187.66c-75.06,0-157.16-16.42-215.8-49.26l62.55-136.05c46.92,27.37,100.86,39.88,147,39.88
		c41.44,0,71.15-14.08,71.15-42.22c0-23.46-17.98-37.53-64.9-37.53h-72.72V713.21l80.54-82.1H652.37V491.93h408.15v113.38
		L958.87,708.52C1044.88,729.63,1090.23,788.27,1090.23,864.12z"/>
	<path class="st6" d="M840.02,1044.97c-76.3,0-153.06-16.9-206.96-45.39l56.8-123.55c43.23,23.65,95.24,37.12,143.91,37.12
		c48.81,0,77.96-18.33,77.96-49.03c0-29.42-24.12-44.34-71.7-44.34h-65.91V715.99l89.94-91.68H659.17V498.74h394.54v103.78
		L945.62,712.28l11.63,2.85c80.19,19.68,126.17,73.99,126.17,148.99c0,48.03-20.27,92.02-57.07,123.87
		C983.27,1025.26,918.84,1044.97,840.02,1044.97z"/>
</g>
</svg>
